<svg width="96" height="96" viewBox="0 0 96 96" fill="none" xmlns="http://www.w3.org/2000/svg">
<g clip-path="url(#clip0_1_14)">
<path d="M76 32L60 48H72C72 61.24 61.24 72 48 72C43.96 72 40.12 71 36.8 69.2L30.96 75.04C35.88 78.16 41.72 80 48 80C65.68 80 80 65.68 80 48H92L76 32ZM24 48C24 34.76 34.76 24 48 24C52.04 24 55.88 25 59.2 26.8L65.04 20.96C60.12 17.84 54.28 16 48 16C30.32 16 16 30.32 16 48H4L20 64L36 48H24Z" fill="#e5645e"/>
</g>
<defs>
<clipPath id="clip0_1_14">
<rect width="96" height="96" fill="white"/>
</clipPath>
</defs>
</svg>
